<?xml version="1.0" encoding="utf-8"?>
<!-- Generator: Adobe Illustrator 16.0.0, SVG Export Plug-In . SVG Version: 6.00 Build 0)  -->
<!DOCTYPE svg PUBLIC "-//W3C//DTD SVG 1.1//EN" "http://www.w3.org/Graphics/SVG/1.1/DTD/svg11.dtd">
<svg version="1.1" id="Ebene_1" xmlns="http://www.w3.org/2000/svg" xmlns:xlink="http://www.w3.org/1999/xlink" x="0px" y="0px"
	 width="48px" height="48px" viewBox="0 0 48 48" enable-background="new 0 0 48 48" xml:space="preserve">
<g>
	<path fill-rule="evenodd" clip-rule="evenodd" fill="#EEEEEE" d="M41.421,16.963c0-1.129,0-2.228,0-3.334
		c1.849,0.295,3.507,2.116,3.48,3.908c-0.021,1.428-0.16,2.855-0.283,4.279c-0.187,2.182-0.405,4.362-0.61,6.543
		c-0.203,2.146-0.405,4.289-0.607,6.434c-0.125,1.334-0.217,2.67-0.385,3.999c-0.069,0.546-0.236,1.1-0.471,1.595
		c-0.365,0.771-1.102,0.994-1.898,1.047c-0.181,0.01-0.362,0.003-0.543,0.003c-10.663,0-21.327-0.011-31.99,0.01
		c-1.86,0.005-2.811-0.533-3.037-2.782c-0.421-4.195-0.805-8.397-1.201-12.597c-0.254-2.684-0.505-5.37-0.754-8.056
		c-0.141-1.52,0.318-2.742,1.741-3.498c0.538-0.286,1.044-0.632,1.663-1.009c0,1.208,0,2.316,0,3.459
		C18.176,16.963,29.756,16.963,41.421,16.963z"/>
	<path fill-rule="evenodd" clip-rule="evenodd" fill="#EEEEEE" d="M39.651,15.323c-10.399,0-20.816,0-31.193,0
		c0-1.383-0.052-2.739,0.021-4.088c0.039-0.735,0.49-1.059,1.236-1.131c0.359-0.035,0.723-0.052,1.084-0.052
		c8.829-0.002,17.659-0.002,26.488,0c0.38,0.001,0.76,0.019,1.14,0.057c0.715,0.071,1.184,0.457,1.211,1.163
		C39.688,12.604,39.651,13.94,39.651,15.323z"/>
	<path fill-rule="evenodd" clip-rule="evenodd" fill="#EEEEEE" d="M34.484,8.591c-6.979,0-13.917,0-20.91,0
		c0.038-0.368,0.035-0.711,0.114-1.035c0.126-0.514,0.444-0.869,1.007-0.923c0.378-0.035,0.759-0.077,1.138-0.078
		c5.476-0.005,10.952-0.003,16.425-0.003c0.092,0,0.184,0,0.272,0.001C34.105,6.583,34.443,6.928,34.484,8.591z"/>
</g>
</svg>
